<?xml version="1.0" encoding="utf-8"?>
<!-- Generator: Adobe Illustrator 19.2.1, SVG Export Plug-In . SVG Version: 6.00 Build 0)  -->
<svg version="1.1" id="Laag_1" xmlns="http://www.w3.org/2000/svg" xmlns:xlink="http://www.w3.org/1999/xlink" x="0px" y="0px"
	 viewBox="0 0 102.1 102.1" style="enable-background:new 0 0 102.1 102.1;" xml:space="preserve">
<style type="text/css">
	.st0{fill:#0082C9;}
</style>
<title>github</title>
<path class="st0" d="M51,0C22.9,0,0,23.4,0,52.3C0,75.4,14.6,95,34.9,102c2.5,0.5,3.5-1.1,3.5-2.5s0-5.4-0.1-9.7
	c-14.2,3.2-17.2-6.2-17.2-6.2c-2.3-6-5.7-7.7-5.7-7.7c-4.6-3.2,0.4-3.2,0.4-3.2c5.1,0.4,7.8,5.4,7.8,5.4c4.6,8,11.9,5.7,14.9,4.3
	c0.2-2.6,1.4-5.1,3.2-7c-11.3-1.3-23.2-5.8-23.2-25.8c-0.1-5.2,1.8-10.2,5.3-14c-0.5-1.3-2.3-6.6,0.5-13.9c0,0,4.3-1.4,14,5.4
	c8.4-2.3,17.2-2.3,25.5,0c9.7-6.8,14-5.4,14-5.4c2.8,7.2,1,12.5,0.5,13.9c3.5,3.8,5.3,8.8,5.2,14c0,20.1-11.9,24.5-23.3,25.8
	c1.8,1.6,3.5,4.8,3.5,9.7c0,7-0.1,12.6-0.1,14.4c0,1.4,0.9,3,3.5,2.5C87.4,95,102,75.4,102,52.3C102,23.4,79.2,0,51,0z"/>
<path class="st0" d="M19.3,75.1c-0.2,0.3-0.6,0.4-0.9,0.2c-0.3-0.1-0.5-0.4-0.5-0.8c0.2-0.3,0.6-0.4,0.9-0.2l0,0
	C19.2,74.4,19.4,74.8,19.3,75.1L19.3,75.1L19.3,75.1z"/>
<path class="st0" d="M21.4,77.5c-0.3,0.2-0.8,0.1-1-0.2c-0.3-0.3-0.4-0.7-0.1-1.1c0.3-0.2,0.8-0.1,1,0.2
	C21.6,76.7,21.6,77.1,21.4,77.5L21.4,77.5z"/>
<path class="st0" d="M23.4,80.5c-0.4,0.2-1,0-1.1-0.5c-0.3-0.4-0.3-0.9,0-1.2c0.4-0.2,0.9,0,1.1,0.4C23.7,79.5,23.7,80.1,23.4,80.5
	L23.4,80.5L23.4,80.5z"/>
<path class="st0" d="M26.2,83.4c-0.4,0.3-1,0.2-1.3-0.2c-0.4-0.3-0.6-0.9-0.3-1.3c0.4-0.3,1-0.2,1.3,0.2
	C26.3,82.4,26.4,82.9,26.2,83.4L26.2,83.4z"/>
<path class="st0" d="M30,85.1c-0.3,0.4-0.8,0.6-1.3,0.4c-0.5-0.1-0.9-0.5-0.8-1.1c0.2-0.4,0.8-0.6,1.2-0.4
	C29.7,84.1,30.1,84.6,30,85.1L30,85.1z"/>
<path class="st0" d="M34.1,85.4c-0.2,0.6-0.9,0.9-1.5,0.7c-0.3-0.1-0.6-0.4-0.7-0.7c0.1-0.5,0.6-0.9,1.1-0.8
	C33.5,84.5,34,84.9,34.1,85.4L34.1,85.4L34.1,85.4z"/>
<path class="st0" d="M38,84.7c0,0.6-0.4,1-1,1c-0.5,0.2-1-0.1-1.2-0.6c0-0.5,0.4-1,1-1C37.2,84,37.8,84.3,38,84.7L38,84.7L38,84.7z"
	/>
</svg>
