<svg id="Laag_1" data-name="Laag 1" xmlns="http://www.w3.org/2000/svg" viewBox="0 0 102.05 102.05"><defs><style>.cls-1,.cls-2{fill:#9c9b9c;}.cls-1{fill-rule:evenodd;}</style></defs><title>github</title><path class="cls-1" d="M51,0C22.85,0,0,23.42,0,52.32,0,75.43,14.62,95,34.89,102c2.55,0.48,3.49-1.14,3.49-2.52s0-5.37-.07-9.74c-14.19,3.16-17.19-6.17-17.19-6.17-2.32-6-5.67-7.65-5.67-7.65-4.63-3.25.35-3.18,0.35-3.18,5.12,0.37,7.82,5.39,7.82,5.39,4.55,8,11.94,5.69,14.85,4.35a11.25,11.25,0,0,1,3.24-7c-11.33-1.32-23.25-5.81-23.25-25.85a20.53,20.53,0,0,1,5.26-14c-0.53-1.32-2.28-6.64.49-13.85,0,0,4.28-1.41,14,5.36a47.23,47.23,0,0,1,25.55,0c9.74-6.77,14-5.36,14-5.36,2.78,7.21,1,12.53.5,13.85a20.49,20.49,0,0,1,5.25,14c0,20.09-11.94,24.52-23.3,25.81,1.83,1.62,3.46,4.81,3.46,9.69,0,7-.06,12.63-0.06,14.36,0,1.39.92,3,3.5,2.51C87.45,95,102,75.42,102,52.32,102,23.42,79.2,0,51,0Z"/><path class="cls-2" d="M19.33,75.11a0.63,0.63,0,0,1-.87.16A0.67,0.67,0,0,1,18,74.49a0.63,0.63,0,0,1,.88-0.16,0.66,0.66,0,0,1,.45.79h0Zm-0.63-.48"/><path class="cls-2" d="M21.39,77.48a0.77,0.77,0,0,1-1-.24,0.81,0.81,0,0,1-.15-1.09,0.78,0.78,0,0,1,1,.24,0.8,0.8,0,0,1,.15,1.09h0Zm-0.49-.54"/><path class="cls-2" d="M23.4,80.49A0.89,0.89,0,0,1,22.26,80a0.92,0.92,0,0,1,0-1.25,0.89,0.89,0,0,1,1.14.44,0.94,0.94,0,0,1,0,1.26h0Zm0,0"/><path class="cls-2" d="M26.16,83.4a0.94,0.94,0,0,1-1.31-.2,1,1,0,0,1-.29-1.34,1,1,0,0,1,1.32.2,1,1,0,0,1,.28,1.34h0Zm0,0"/><path class="cls-2" d="M30,85.09a1,1,0,0,1-1.27.42,1,1,0,0,1-.84-1.07A1,1,0,0,1,29.13,84,1,1,0,0,1,30,85.09h0Zm0,0"/><path class="cls-2" d="M34.14,85.4a1.16,1.16,0,0,1-2.19,0,1,1,0,0,1,1.09-.8,1,1,0,0,1,1.1.76h0Zm0,0"/><path class="cls-2" d="M38,84.73a1,1,0,0,1-1,1,1,1,0,0,1-1.22-.57,1,1,0,0,1,.95-1,1,1,0,0,1,1.22.57h0Zm0,0"/></svg>