<svg id="Laag_1" data-name="Laag 1" xmlns="http://www.w3.org/2000/svg" viewBox="0 0 102.05 102.05"><defs><style>.cls-1{fill:#9c9b9c;}.cls-2{fill:#fff;}</style></defs><title>instagram</title><circle class="cls-1" cx="51.02" cy="51.02" r="51.02"/><path class="cls-2" d="M51,23.43c9,0,10.05,0,13.6.2a18.62,18.62,0,0,1,6.25,1.16,11.14,11.14,0,0,1,6.39,6.39,18.62,18.62,0,0,1,1.16,6.25c0.16,3.55.2,4.61,0.2,13.6s0,10.05-.2,13.6a18.62,18.62,0,0,1-1.16,6.25,11.14,11.14,0,0,1-6.39,6.39,18.62,18.62,0,0,1-6.25,1.16c-3.55.16-4.61,0.2-13.6,0.2s-10.05,0-13.6-.2a18.62,18.62,0,0,1-6.25-1.16,11.14,11.14,0,0,1-6.39-6.39,18.62,18.62,0,0,1-1.16-6.25c-0.16-3.55-.2-4.61-0.2-13.6s0-10.05.2-13.6a18.62,18.62,0,0,1,1.16-6.25,11.14,11.14,0,0,1,6.39-6.39,18.62,18.62,0,0,1,6.25-1.16C41,23.47,42,23.43,51,23.43m0-6.06c-9.14,0-10.29,0-13.88.2A24.7,24.7,0,0,0,29,19.14,17.21,17.21,0,0,0,19.14,29a24.7,24.7,0,0,0-1.56,8.17c-0.16,3.59-.2,4.74-0.2,13.88s0,10.29.2,13.88a24.7,24.7,0,0,0,1.56,8.17A17.21,17.21,0,0,0,29,82.91a24.7,24.7,0,0,0,8.17,1.56c3.59,0.16,4.74.2,13.88,0.2s10.29,0,13.88-.2a24.7,24.7,0,0,0,8.17-1.56,17.21,17.21,0,0,0,9.84-9.84,24.7,24.7,0,0,0,1.56-8.17c0.16-3.59.2-4.74,0.2-13.88s0-10.29-.2-13.88A24.7,24.7,0,0,0,82.91,29a17.21,17.21,0,0,0-9.84-9.84,24.7,24.7,0,0,0-8.17-1.56c-3.59-.16-4.74-0.2-13.88-0.2h0Z"/><path class="cls-2" d="M51,33.74A17.28,17.28,0,1,0,68.3,51,17.28,17.28,0,0,0,51,33.74Zm0,28.5A11.22,11.22,0,1,1,62.24,51,11.22,11.22,0,0,1,51,62.24Z"/><circle class="cls-2" cx="68.99" cy="33.06" r="4.04"/></svg>