<?xml version="1.0" encoding="utf-8"?>
<!-- Generator: Adobe Illustrator 19.2.1, SVG Export Plug-In . SVG Version: 6.00 Build 0)  -->
<svg version="1.1" id="Laag_1" xmlns="http://www.w3.org/2000/svg" xmlns:xlink="http://www.w3.org/1999/xlink" x="0px" y="0px"
	 viewBox="0 0 102.1 102.1" style="enable-background:new 0 0 102.1 102.1;" xml:space="preserve">
<style type="text/css">
	.st0{fill:#0082C9;}
	.st1{fill:#FFFFFF;}
</style>
<title>instagram</title>
<circle class="st0" cx="51" cy="51" r="51"/>
<path class="st1" d="M51,23.4c9,0,10,0,13.6,0.2c2.1,0,4.2,0.4,6.2,1.2c2.9,1.1,5.3,3.5,6.4,6.4c0.7,2,1.1,4.1,1.2,6.2
	C78.6,41,78.6,42,78.6,51s0,10-0.2,13.6c0,2.1-0.4,4.2-1.2,6.2c-1.1,2.9-3.5,5.3-6.4,6.4c-2,0.7-4.1,1.1-6.2,1.2
	C61,78.6,60,78.6,51,78.6s-10,0-13.6-0.2c-2.1,0-4.2-0.4-6.2-1.2c-2.9-1.1-5.3-3.5-6.4-6.4c-0.7-2-1.1-4.1-1.2-6.2
	c-0.2-3.5-0.2-4.6-0.2-13.6s0-10,0.2-13.6c0-2.1,0.4-4.2,1.2-6.2c1.1-2.9,3.5-5.3,6.4-6.4c2-0.7,4.1-1.1,6.2-1.2
	C41,23.5,42,23.4,51,23.4 M51,17.4c-9.1,0-10.3,0-13.9,0.2c-2.8,0.1-5.5,0.6-8.1,1.6c-4.5,1.7-8.1,5.3-9.9,9.9
	c-1,2.6-1.5,5.4-1.6,8.2c-0.2,3.6-0.2,4.7-0.2,13.9s0,10.3,0.2,13.9c0.1,2.8,0.6,5.6,1.6,8.2c1.8,4.5,5.3,8.1,9.9,9.8
	c2.6,1,5.4,1.5,8.2,1.6c3.6,0.2,4.7,0.2,13.9,0.2s10.3,0,13.9-0.2c2.8-0.1,5.6-0.6,8.2-1.6c4.5-1.7,8.1-5.3,9.8-9.8
	c1-2.6,1.5-5.4,1.6-8.2c0.2-3.6,0.2-4.7,0.2-13.9s0-10.3-0.2-13.9c-0.1-2.8-0.6-5.5-1.6-8.1c-1.7-4.5-5.3-8.1-9.8-9.8
	c-2.6-1-5.4-1.5-8.2-1.6C61.3,17.4,60.2,17.4,51,17.4L51,17.4L51,17.4z"/>
<path class="st1" d="M51,33.7c-9.5,0-17.3,7.8-17.3,17.3S41.5,68.3,51,68.3S68.3,60.5,68.3,51S60.5,33.7,51,33.7L51,33.7z M51,62.2
	c-6.2,0-11.2-5-11.2-11.2s5-11.2,11.2-11.2s11.2,5,11.2,11.2C62.3,57.2,57.2,62.2,51,62.2L51,62.2z"/>
<circle class="st1" cx="69" cy="33.1" r="4"/>
</svg>
