<svg id="Laag_1" data-name="Laag 1" xmlns="http://www.w3.org/2000/svg" viewBox="0 0 102.05 102.05"><defs><style>.cls-1{fill:#9c9b9c;}.cls-2{fill:#fff;}</style></defs><title>linkedin</title><circle class="cls-1" cx="51.02" cy="51.02" r="51.02"/><path class="cls-2" d="M78.64,18.61H23.4a4.73,4.73,0,0,0-4.78,4.67V78.76a4.73,4.73,0,0,0,4.78,4.68H78.64a4.74,4.74,0,0,0,4.79-4.68V23.29A4.74,4.74,0,0,0,78.64,18.61Z"/><path class="cls-1" d="M28.22,42.91h9.62V73.85H28.22V42.91ZM33,27.54a5.58,5.58,0,1,1-5.58,5.57A5.58,5.58,0,0,1,33,27.54"/><path class="cls-1" d="M43.87,42.91h9.22v4.23h0.13a10.1,10.1,0,0,1,9.1-5c9.73,0,11.53,6.4,11.53,14.74v17H64.24v-15c0-3.59-.06-8.2-5-8.2s-5.77,3.91-5.77,7.94v15.3h-9.6V42.91Z"/></svg>