<?xml version="1.0" encoding="utf-8"?>
<!-- Generator: Adobe Illustrator 19.2.1, SVG Export Plug-In . SVG Version: 6.00 Build 0)  -->
<svg version="1.1" id="Laag_1" xmlns="http://www.w3.org/2000/svg" xmlns:xlink="http://www.w3.org/1999/xlink" x="0px" y="0px"
	 viewBox="0 0 102.1 102.1" style="enable-background:new 0 0 102.1 102.1;" xml:space="preserve">
<style type="text/css">
	.st0{fill:#0082C9;}
	.st1{fill:#FFFFFF;}
</style>
<title>linkedin</title>
<circle class="st0" cx="51" cy="51" r="51"/>
<path class="st1" d="M78.6,18.6H23.4c-2.6,0-4.7,2.1-4.8,4.7v55.5c0,2.6,2.2,4.7,4.8,4.7l0,0h55.2c2.6,0,4.8-2.1,4.8-4.7V23.3
	C83.4,20.7,81.3,18.6,78.6,18.6z"/>
<path class="st0" d="M28.2,42.9h9.6v30.9h-9.6C28.2,73.8,28.2,42.9,28.2,42.9z M33,27.5c3.1,0,5.6,2.5,5.6,5.6s-2.5,5.6-5.6,5.6
	s-5.6-2.5-5.6-5.6l0,0C27.4,30,29.9,27.5,33,27.5"/>
<path class="st0" d="M43.9,42.9h9.2v4.2h0.1c1.9-3.2,5.4-5.1,9.1-5c9.7,0,11.5,6.4,11.5,14.7v17h-9.6v-15c0-3.6-0.1-8.2-5-8.2
	s-5.8,3.9-5.8,7.9v15.3h-9.6C43.9,73.9,43.9,42.9,43.9,42.9z"/>
</svg>
