<?xml version="1.0" encoding="utf-8"?>
<!-- Generator: Adobe Illustrator 19.2.1, SVG Export Plug-In . SVG Version: 6.00 Build 0)  -->
<svg version="1.1" id="Laag_1" xmlns="http://www.w3.org/2000/svg" xmlns:xlink="http://www.w3.org/1999/xlink" x="0px" y="0px"
	 viewBox="0 0 102.1 102.1" style="enable-background:new 0 0 102.1 102.1;" xml:space="preserve">
<style type="text/css">
	.st0{fill:#9C9B9C;}
	.st1{fill:#FFFFFF;}
</style>
<title>linkedin</title>
<circle class="st0" cx="51" cy="51" r="51"/>
<path class="st1" d="M84.8,31.5c-2.4,1-4.9,1.7-7.4,2c2.7-1.6,4.7-4.1,5.6-7.1c-2.5,1.5-5.3,2.6-8.2,3.1c-4.9-5.2-13.1-5.4-18.3-0.5
	c-3.3,3.1-4.8,7.8-3.7,12.3c-10.4-0.5-20-5.4-26.6-13.5c-3.4,5.9-1.7,13.4,4,17.2c-2.1-0.1-4.1-0.6-5.9-1.6c0,0,0,0.1,0,0.2
	c0,6.2,4.3,11.5,10.4,12.7c-1.9,0.5-3.9,0.6-5.8,0.2c1.7,5.3,6.5,8.9,12.1,9c-4.6,3.6-10.2,5.5-16,5.5c-1,0-2.1-0.1-3.1-0.2
	c5.9,3.8,12.8,5.8,19.8,5.8c23.8,0,36.8-19.7,36.8-36.8c0-0.6,0-1.1,0-1.7C80.9,36.4,83.1,34.1,84.8,31.5z"/>
</svg>
